<?xml version="1.0" encoding="UTF-8" standalone="no"?>
<svg
   xmlns:dc="http://purl.org/dc/elements/1.1/"
   xmlns:cc="http://creativecommons.org/ns#"
   xmlns:rdf="http://www.w3.org/1999/02/22-rdf-syntax-ns#"
   xmlns:svg="http://www.w3.org/2000/svg"
   xmlns="http://www.w3.org/2000/svg"
   width="237"
   height="27"
   version="1.1"
   id="svg855">
  <style
     id="style863"></style>
  <metadata
     id="metadata861">
    <rdf:RDF>
      <cc:Work
         rdf:about="">
        <dc:format>image/svg+xml</dc:format>
        <dc:type
           rdf:resource="http://purl.org/dc/dcmitype/StillImage" />
        <dc:title></dc:title>
      </cc:Work>
    </rdf:RDF>
  </metadata>
  <defs
     id="defs859" />
  <g
     fill-rule="nonzero"
     fill="none"
     id="g853">
    <path
       d="m 40.237,24.95 c 1.304,0 2.444,-0.237 3.422,-0.71 0.978,-0.474 1.755,-1.124 2.331,-1.95 0.576,-0.827 0.907,-1.78 0.994,-2.86 0.011,-0.199 -0.019,-0.345 -0.09,-0.438 a 0.374,0.374 0 0 0 -0.268,-0.157 0.623,0.623 0 0 0 -0.27,0.066 c -0.092,0.044 -0.22,0.143 -0.382,0.297 -0.294,0.562 -0.712,0.962 -1.255,1.199 -0.544,0.237 -1.217,0.355 -2.021,0.355 -0.804,0 -1.521,-0.21 -2.152,-0.628 -0.63,-0.419 -1.127,-1.047 -1.491,-1.884 -0.364,-0.838 -0.546,-1.874 -0.546,-3.108 0,-0.86 0.079,-1.581 0.236,-2.165 0.158,-0.584 0.38,-1.022 0.669,-1.314 0.287,-0.292 0.61,-0.438 0.97,-0.438 0.358,0 0.635,0.138 0.83,0.413 0.196,0.276 0.294,0.683 0.294,1.223 v 1.058 c 0,0.893 0.23,1.595 0.693,2.108 0.461,0.512 1.138,0.768 2.029,0.768 0.87,0 1.556,-0.25 2.062,-0.752 0.505,-0.501 0.757,-1.193 0.757,-2.074 0,-0.838 -0.241,-1.595 -0.725,-2.273 C 45.841,11.008 45.14,10.471 44.222,10.074 43.303,9.678 42.176,9.479 40.84,9.479 c -1.565,0 -2.934,0.35 -4.108,1.05 a 7.38,7.38 0 0 0 -2.746,2.86 C 33.33,14.594 33,15.963 33,17.495 c 0,1.587 0.315,2.934 0.945,4.041 a 6.4,6.4 0 0 0 2.584,2.537 c 1.092,0.584 2.328,0.876 3.708,0.876 z m 15.728,-0.033 c 1.619,0 3.04,-0.336 4.262,-1.008 1.222,-0.672 2.179,-1.584 2.869,-2.735 0.69,-1.152 1.034,-2.455 1.034,-3.91 0,-1.531 -0.33,-2.881 -0.994,-4.05 a 7.107,7.107 0 0 0 -2.77,-2.743 C 59.181,9.81 57.796,9.479 56.209,9.479 c -1.597,0 -3.01,0.342 -4.237,1.025 -1.228,0.683 -2.19,1.606 -2.885,2.769 -0.696,1.162 -1.043,2.47 -1.043,3.925 0,1.521 0.331,2.86 0.994,4.017 a 7.067,7.067 0 0 0 2.779,2.719 c 1.19,0.656 2.572,0.983 4.148,0.983 z m 1.239,-1.719 c -0.337,0.066 -0.666,-0.082 -0.987,-0.446 -0.32,-0.364 -0.624,-0.975 -0.912,-1.835 -0.288,-0.86 -0.563,-1.989 -0.823,-3.388 -0.25,-1.4 -0.392,-2.551 -0.424,-3.455 -0.033,-0.903 0.032,-1.586 0.195,-2.05 0.163,-0.462 0.413,-0.732 0.75,-0.81 0.337,-0.065 0.666,0.084 0.986,0.447 0.32,0.364 0.628,0.975 0.921,1.835 0.294,0.86 0.57,1.989 0.831,3.388 0.261,1.4 0.405,2.554 0.432,3.463 0.027,0.91 -0.043,1.595 -0.212,2.058 -0.168,0.463 -0.42,0.727 -0.757,0.793 z m 17.781,1.422 c 0.511,0 0.766,-0.254 0.766,-0.76 0,-0.22 -0.06,-0.394 -0.179,-0.521 -0.12,-0.127 -0.304,-0.207 -0.554,-0.24 L 73.616,22.884 A 0.589,0.589 0 0 1 73.168,22.587 C 73.076,22.421 73.03,22.185 73.03,21.876 V 11.579 h 1.157 c 0.608,0 1.054,-0.105 1.336,-0.315 0.283,-0.209 0.424,-0.479 0.424,-0.81 0,-0.22 -0.068,-0.382 -0.204,-0.487 C 75.607,9.862 75.415,9.81 75.165,9.81 H 72.75 L 72.735,9.723 A 1.998,1.998 0 0 0 72.471,9.083 L 72.401,8.975 A 8.286,8.286 0 0 0 71.496,7.885 36.96,36.96 0 0 1 70.421,6.727 6.526,6.526 0 0 1 69.516,5.43 3.138,3.138 0 0 1 69.149,3.942 c 0,-0.518 0.104,-0.914 0.31,-1.19 0.207,-0.275 0.51,-0.413 0.913,-0.413 0.315,0 0.549,0.09 0.7,0.273 0.153,0.181 0.229,0.465 0.229,0.85 v 1.472 c 0,0.837 0.239,1.51 0.717,2.016 0.478,0.507 1.108,0.76 1.89,0.76 0.707,0 1.286,-0.217 1.736,-0.652 0.451,-0.435 0.677,-1.088 0.677,-1.959 0,-0.738 -0.19,-1.419 -0.57,-2.041 C 75.371,2.435 74.797,1.937 74.031,1.562 73.265,1.187 72.302,1 71.139,1 69.335,1 67.944,1.433 66.966,2.298 65.989,3.163 65.5,4.317 65.5,5.76 c 0,0.606 0.081,1.116 0.244,1.53 0.163,0.412 0.348,0.768 0.554,1.065 l 0.554,0.802 c 0.123,0.178 0.199,0.363 0.23,0.556 l 0.01,0.097 h -1.43 A 0.83,0.83 0 0 0 65.154,9.955 L 65.1,10 a 0.637,0.637 0 0 0 -0.203,0.488 c 0,0.198 0.054,0.366 0.162,0.504 0.11,0.137 0.288,0.267 0.538,0.388 l 0.946,0.314 c 0.206,0.088 0.347,0.185 0.423,0.29 a 0.643,0.643 0 0 1 0.115,0.388 v 9.554 c 0,0.286 -0.05,0.507 -0.147,0.66 a 0.73,0.73 0 0 1 -0.408,0.315 l -0.7,0.215 a 0.978,0.978 0 0 0 -0.432,0.297 0.77,0.77 0 0 0 -0.139,0.48 c 0,0.231 0.068,0.41 0.204,0.537 0.136,0.126 0.312,0.19 0.53,0.19 z m 11.377,0 c 0.51,0 0.766,-0.254 0.766,-0.76 0,-0.22 -0.06,-0.394 -0.18,-0.521 -0.119,-0.127 -0.304,-0.207 -0.554,-0.24 L 84.993,22.884 A 0.589,0.589 0 0 1 84.545,22.587 C 84.452,22.421 84.406,22.185 84.406,21.876 V 11.579 h 1.157 c 0.609,0 1.054,-0.105 1.337,-0.315 0.282,-0.209 0.423,-0.479 0.423,-0.81 0,-0.22 -0.067,-0.382 -0.203,-0.487 C 86.984,9.862 86.791,9.81 86.541,9.81 H 84.127 L 84.112,9.723 A 1.998,1.998 0 0 0 83.848,9.083 L 83.778,8.975 A 8.286,8.286 0 0 0 82.874,7.885 36.96,36.96 0 0 1 81.798,6.727 6.526,6.526 0 0 1 80.894,5.43 3.138,3.138 0 0 1 80.527,3.942 c 0,-0.518 0.103,-0.914 0.31,-1.19 0.206,-0.275 0.51,-0.413 0.912,-0.413 0.315,0 0.55,0.09 0.701,0.273 0.152,0.181 0.228,0.465 0.228,0.85 v 1.472 c 0,0.837 0.24,1.51 0.718,2.016 0.478,0.507 1.108,0.76 1.89,0.76 0.706,0 1.285,-0.217 1.736,-0.652 0.45,-0.435 0.676,-1.088 0.676,-1.959 0,-0.738 -0.19,-1.419 -0.57,-2.041 C 86.748,2.435 86.174,1.937 85.408,1.562 84.642,1.187 83.678,1 82.515,1 80.712,1 79.321,1.433 78.343,2.298 77.365,3.163 76.876,4.317 76.876,5.76 c 0,0.606 0.082,1.116 0.245,1.53 0.163,0.412 0.347,0.768 0.554,1.065 l 0.554,0.802 c 0.122,0.178 0.198,0.363 0.229,0.556 l 0.011,0.097 h -1.43 A 0.83,0.83 0 0 0 76.53,9.955 L 76.477,10 a 0.637,0.637 0 0 0 -0.204,0.488 c 0,0.198 0.054,0.366 0.163,0.504 0.109,0.137 0.288,0.267 0.538,0.388 l 0.945,0.314 c 0.207,0.088 0.348,0.185 0.424,0.29 a 0.643,0.643 0 0 1 0.114,0.388 v 9.554 c 0,0.286 -0.049,0.507 -0.147,0.66 a 0.73,0.73 0 0 1 -0.407,0.315 l -0.701,0.215 a 0.978,0.978 0 0 0 -0.432,0.297 0.77,0.77 0 0 0 -0.138,0.48 c 0,0.231 0.067,0.41 0.203,0.537 0.136,0.126 0.313,0.19 0.53,0.19 z m 9.11,0.33 c 1.38,0 2.598,-0.27 3.652,-0.81 1.054,-0.54 1.874,-1.258 2.46,-2.157 0.588,-0.898 0.881,-1.887 0.881,-2.966 0,-0.21 -0.038,-0.359 -0.114,-0.447 a 0.353,0.353 0 0 0 -0.277,-0.132 0.64,0.64 0 0 0 -0.27,0.074 c -0.102,0.05 -0.22,0.146 -0.35,0.29 -0.228,0.705 -0.676,1.256 -1.344,1.653 -0.668,0.396 -1.437,0.595 -2.306,0.595 -1.359,0 -2.445,-0.466 -3.26,-1.397 -0.478,-0.546 -0.816,-1.273 -1.013,-2.18 l -0.016,-0.076 h 7.45 c 0.472,0 0.841,-0.125 1.11,-0.374 l 0.064,-0.064 c 0.272,-0.292 0.407,-0.692 0.407,-1.199 0,-1.168 -0.274,-2.228 -0.823,-3.181 -0.548,-0.954 -1.333,-1.708 -2.355,-2.265 -1.021,-0.556 -2.238,-0.835 -3.65,-0.835 -1.663,0 -3.087,0.33 -4.271,0.992 a 6.684,6.684 0 0 0 -2.714,2.769 c -0.624,1.184 -0.937,2.564 -0.937,4.14 0,1.499 0.323,2.818 0.97,3.959 A 6.821,6.821 0 0 0 91.463,24 c 1.152,0.634 2.489,0.95 4.01,0.95 z m -2.127,-8.878 a 12.966,12.966 0 0 1 -0.024,-0.791 c 0,-1.036 0.076,-1.851 0.229,-2.446 0.152,-0.595 0.347,-1.017 0.586,-1.265 0.24,-0.248 0.506,-0.372 0.799,-0.372 0.38,0 0.736,0.325 1.068,0.976 0.33,0.65 0.497,1.73 0.497,3.24 0,0.462 -0.207,0.693 -0.62,0.693 h -2.533 z m 17.71,8.878 c 1.38,0 2.596,-0.27 3.65,-0.81 1.054,-0.54 1.875,-1.258 2.461,-2.157 0.587,-0.898 0.88,-1.887 0.88,-2.966 0,-0.21 -0.038,-0.359 -0.114,-0.447 a 0.353,0.353 0 0 0 -0.277,-0.132 0.64,0.64 0 0 0 -0.269,0.074 c -0.103,0.05 -0.22,0.146 -0.35,0.29 -0.228,0.705 -0.676,1.256 -1.345,1.653 -0.668,0.396 -1.437,0.595 -2.306,0.595 -1.358,0 -2.445,-0.466 -3.26,-1.397 -0.477,-0.546 -0.815,-1.273 -1.013,-2.18 l -0.016,-0.076 h 7.451 c 0.471,0 0.841,-0.125 1.109,-0.374 l 0.065,-0.064 c 0.271,-0.292 0.407,-0.692 0.407,-1.199 0,-1.168 -0.274,-2.228 -0.823,-3.181 -0.549,-0.954 -1.334,-1.708 -2.355,-2.265 -1.022,-0.556 -2.239,-0.835 -3.651,-0.835 -1.663,0 -3.086,0.33 -4.27,0.992 a 6.684,6.684 0 0 0 -2.714,2.769 c -0.625,1.184 -0.937,2.564 -0.937,4.14 0,1.499 0.323,2.818 0.97,3.959 A 6.821,6.821 0 0 0 107.044,24 c 1.152,0.634 2.488,0.95 4.01,0.95 z m -2.129,-8.878 a 12.966,12.966 0 0 1 -0.023,-0.791 c 0,-1.036 0.076,-1.851 0.228,-2.446 0.152,-0.595 0.348,-1.017 0.587,-1.265 0.239,-0.248 0.505,-0.372 0.798,-0.372 0.38,0 0.737,0.325 1.068,0.976 0.331,0.65 0.497,1.73 0.497,3.24 0,0.462 -0.206,0.693 -0.62,0.693 h -2.533 z m 19.079,8.548 c 0.26,0 0.46,-0.069 0.595,-0.207 a 0.732,0.732 0 0 0 0.204,-0.537 0.82,0.82 0 0 0 -0.147,-0.488 c -0.098,-0.137 -0.26,-0.223 -0.489,-0.256 l -1.222,-0.248 a 0.647,0.647 0 0 1 -0.457,-0.339 c -0.098,-0.181 -0.146,-0.427 -0.146,-0.735 v -5.818 c 0,-0.65 0.038,-1.185 0.114,-1.604 0.076,-0.418 0.187,-0.73 0.334,-0.933 0.146,-0.204 0.318,-0.306 0.513,-0.306 0.196,0 0.337,0.071 0.424,0.215 0.087,0.143 0.136,0.341 0.147,0.595 l 0.016,0.66 c 0.022,0.75 0.225,1.329 0.611,1.736 0.386,0.408 0.98,0.612 1.785,0.612 0.826,0 1.5,-0.298 2.02,-0.893 0.522,-0.595 0.783,-1.526 0.783,-2.793 0,-1.278 -0.25,-2.231 -0.75,-2.86 -0.5,-0.628 -1.217,-0.942 -2.151,-0.942 -0.771,0 -1.483,0.24 -2.135,0.72 -0.652,0.479 -1.176,1.211 -1.573,2.198 a 6.529,6.529 0 0 0 -0.182,0.515 l -0.028,0.094 -0.124,-2.568 c -0.029,-0.304 -0.082,-0.525 -0.158,-0.663 l -0.03,-0.048 c -0.092,-0.132 -0.23,-0.198 -0.415,-0.198 -0.13,0 -0.288,0.022 -0.473,0.066 a 4.95,4.95 0 0 0 -0.684,0.231 l -4.63,1.34 c -0.26,0.098 -0.445,0.217 -0.553,0.355 a 0.74,0.74 0 0 0 -0.163,0.47 0.64,0.64 0 0 0 0.106,0.38 c 0.07,0.1 0.182,0.194 0.334,0.282 l 0.424,0.05 a 0.618,0.618 0 0 1 0.301,0.272 c 0.06,0.116 0.09,0.306 0.09,0.57 v 8.397 c 0,0.33 -0.027,0.568 -0.082,0.71 a 0.552,0.552 0 0 1 -0.293,0.315 l -0.375,0.149 c -0.141,0.099 -0.253,0.206 -0.334,0.322 a 0.743,0.743 0 0 0 -0.122,0.438 c 0,0.231 0.068,0.413 0.203,0.545 0.136,0.133 0.324,0.199 0.563,0.199 z m 13.626,0.297 c 1.619,0 3.04,-0.336 4.262,-1.008 1.222,-0.672 2.178,-1.584 2.868,-2.735 0.69,-1.152 1.035,-2.455 1.035,-3.91 0,-1.531 -0.331,-2.881 -0.994,-4.05 a 7.107,7.107 0 0 0 -2.77,-2.743 c -1.185,-0.661 -2.57,-0.992 -4.157,-0.992 -1.597,0 -3.01,0.342 -4.238,1.025 -1.227,0.683 -2.189,1.606 -2.884,2.769 -0.696,1.162 -1.043,2.47 -1.043,3.925 0,1.521 0.33,2.86 0.994,4.017 a 7.067,7.067 0 0 0 2.779,2.719 c 1.19,0.656 2.572,0.983 4.148,0.983 z m 1.238,-1.719 c -0.336,0.066 -0.665,-0.082 -0.986,-0.446 -0.32,-0.364 -0.624,-0.975 -0.912,-1.835 -0.288,-0.86 -0.563,-1.989 -0.824,-3.388 -0.25,-1.4 -0.39,-2.551 -0.423,-3.455 -0.033,-0.903 0.032,-1.586 0.195,-2.05 0.163,-0.462 0.413,-0.732 0.75,-0.81 0.337,-0.065 0.666,0.084 0.986,0.447 0.32,0.364 0.628,0.975 0.921,1.835 0.293,0.86 0.57,1.989 0.831,3.388 0.261,1.4 0.405,2.554 0.432,3.463 0.027,0.91 -0.043,1.595 -0.212,2.058 -0.168,0.463 -0.42,0.727 -0.758,0.793 z m 19.852,1.752 c 0.913,0 1.663,-0.168 2.25,-0.504 0.586,-0.336 1.023,-0.735 1.311,-1.198 0.288,-0.463 0.432,-0.887 0.432,-1.273 a 0.751,0.751 0 0 0 -0.106,-0.413 0.324,0.324 0 0 0 -0.285,-0.165 0.32,0.32 0 0 0 -0.147,0.033 0.325,0.325 0 0 0 -0.114,0.099 c -0.054,0.198 -0.138,0.336 -0.252,0.413 a 0.643,0.643 0 0 1 -0.367,0.116 c -0.185,0 -0.323,-0.064 -0.416,-0.19 -0.092,-0.127 -0.138,-0.295 -0.138,-0.504 v -7.306 c 0,-1.455 -0.492,-2.581 -1.475,-3.38 -0.984,-0.8 -2.524,-1.199 -4.62,-1.199 -1.63,0 -2.992,0.204 -4.084,0.612 -1.092,0.408 -1.912,0.928 -2.46,1.562 -0.55,0.634 -0.824,1.28 -0.824,1.942 0,0.705 0.204,1.242 0.611,1.612 0.408,0.369 0.997,0.553 1.769,0.553 0.945,0 1.69,-0.256 2.233,-0.768 0.543,-0.513 0.815,-1.177 0.815,-1.992 v -1.256 c 0,-0.309 0.095,-0.548 0.285,-0.72 0.19,-0.17 0.426,-0.255 0.709,-0.255 0.304,0 0.546,0.113 0.725,0.338 0.18,0.226 0.27,0.532 0.27,0.918 l -10e-4,4.818 -0.087,-0.019 a 5.455,5.455 0 0 0 -0.91,-0.087 l -0.176,-10e-4 c -2.337,0 -4.078,0.396 -5.224,1.19 -1.146,0.793 -1.72,1.9 -1.72,3.322 0,1.08 0.394,1.967 1.182,2.661 0.788,0.694 1.834,1.041 3.137,1.041 0.978,0 1.891,-0.2 2.739,-0.603 0.635,-0.302 1.152,-0.698 1.55,-1.188 l 0.022,-0.03 0.024,0.075 c 0.125,0.357 0.354,0.677 0.688,0.96 l 0.103,0.084 c 0.603,0.468 1.454,0.702 2.551,0.702 z m -4.563,-2.578 c -0.435,0 -0.786,-0.18 -1.052,-0.537 -0.266,-0.358 -0.4,-0.907 -0.4,-1.645 0,-0.771 0.129,-1.355 0.384,-1.752 0.255,-0.397 0.595,-0.595 1.019,-0.595 0.25,0 0.467,0.025 0.652,0.074 l 0.08,0.025 v 4.242 l -0.052,0.03 c -0.174,0.09 -0.353,0.142 -0.538,0.155 z M 174.212,25 c 1.934,0 3.417,-0.446 4.45,-1.339 1.032,-0.892 1.548,-2.11 1.548,-3.653 0,-0.936 -0.174,-1.757 -0.522,-2.463 -0.348,-0.705 -0.956,-1.33 -1.825,-1.876 -0.87,-0.545 -2.092,-1.06 -3.668,-1.545 -0.586,-0.187 -1.04,-0.377 -1.36,-0.57 -0.321,-0.193 -0.541,-0.4 -0.66,-0.62 -0.12,-0.22 -0.18,-0.457 -0.18,-0.71 0,-0.376 0.136,-0.679 0.408,-0.91 0.271,-0.231 0.673,-0.347 1.206,-0.347 0.739,0 1.437,0.248 2.094,0.744 0.657,0.496 1.383,1.344 2.176,2.545 0.206,0.254 0.413,0.438 0.62,0.554 0.206,0.116 0.401,0.151 0.586,0.107 a 0.574,0.574 0 0 0 0.424,-0.454 c 0.054,-0.237 0.043,-0.576 -0.033,-1.017 l -0.424,-3.041 c -0.043,-0.32 -0.125,-0.545 -0.244,-0.678 a 0.607,0.607 0 0 0 -0.473,-0.198 c -0.174,0 -0.39,0.06 -0.652,0.182 -0.26,0.121 -0.519,0.245 -0.774,0.372 -0.255,0.126 -0.448,0.19 -0.578,0.19 -0.12,0 -0.297,-0.066 -0.53,-0.199 -0.234,-0.132 -0.562,-0.264 -0.986,-0.396 -0.424,-0.133 -0.973,-0.199 -1.646,-0.199 -1.12,0 -2.127,0.204 -3.024,0.612 -0.896,0.408 -1.603,0.989 -2.119,1.744 -0.516,0.755 -0.774,1.655 -0.774,2.702 0,0.926 0.193,1.736 0.579,2.43 0.386,0.694 0.975,1.29 1.768,1.785 0.793,0.496 1.793,0.898 3,1.207 0.781,0.209 1.382,0.421 1.8,0.636 0.418,0.215 0.706,0.45 0.864,0.703 0.158,0.253 0.236,0.534 0.236,0.842 0,0.408 -0.136,0.744 -0.407,1.009 -0.272,0.264 -0.685,0.396 -1.239,0.396 a 3.417,3.417 0 0 1 -1.491,-0.338 c -0.473,-0.226 -0.96,-0.615 -1.459,-1.166 -0.5,-0.55 -1.06,-1.305 -1.679,-2.264 -0.184,-0.254 -0.394,-0.43 -0.627,-0.53 a 0.84,0.84 0 0 0 -0.71,0.017 c -0.227,0.089 -0.374,0.276 -0.44,0.562 -0.064,0.287 -0.048,0.64 0.05,1.058 l 0.505,3.29 c 0.076,0.33 0.185,0.55 0.326,0.66 0.141,0.11 0.293,0.166 0.456,0.166 0.185,0 0.41,-0.06 0.677,-0.182 l 0.798,-0.363 c 0.267,-0.122 0.481,-0.182 0.644,-0.182 0.163,0 0.378,0.06 0.644,0.182 a 7.51,7.51 0 0 0 1.043,0.363 c 0.43,0.121 0.97,0.182 1.622,0.182 z m 12.908,-0.05 c 0.978,0 1.826,-0.19 2.543,-0.57 a 4.366,4.366 0 0 0 1.703,-1.587 c 0.418,-0.677 0.666,-1.462 0.742,-2.355 0.01,-0.253 -0.025,-0.421 -0.106,-0.504 a 0.242,0.242 0 0 0 -0.286,-0.058 c -0.13,0.198 -0.266,0.397 -0.407,0.595 -0.141,0.198 -0.29,0.377 -0.448,0.537 -0.158,0.16 -0.334,0.29 -0.53,0.389 -0.195,0.099 -0.407,0.148 -0.636,0.148 -0.532,0 -0.937,-0.198 -1.214,-0.595 -0.277,-0.396 -0.415,-1.008 -0.415,-1.834 v -7.537 h 2.444 c 0.555,0 0.97,-0.096 1.244,-0.286 l 0.06,-0.045 c 0.272,-0.22 0.408,-0.485 0.408,-0.793 0,-0.22 -0.065,-0.383 -0.196,-0.488 -0.13,-0.105 -0.315,-0.157 -0.554,-0.157 h -3.407 V 6.85 c 0,-0.294 -0.055,-0.518 -0.167,-0.672 l -0.044,-0.055 c -0.142,-0.154 -0.337,-0.231 -0.587,-0.231 a 1.21,1.21 0 0 0 -0.652,0.206 2.83,2.83 0 0 0 -0.652,0.603 l -3.015,2.53 c -0.185,0.23 -0.332,0.385 -0.44,0.462 a 0.541,0.541 0 0 1 -0.31,0.116 h -0.799 a 0.861,0.861 0 0 0 -0.603,0.223 0.738,0.738 0 0 0 -0.244,0.57 c 0,0.188 0.027,0.345 0.081,0.471 0.055,0.127 0.174,0.235 0.359,0.323 l 0.766,0.248 c 0.174,0.077 0.283,0.176 0.326,0.297 0.043,0.121 0.065,0.298 0.065,0.53 v 7.47 c 0,1.73 0.416,2.997 1.247,3.802 0.831,0.804 2.073,1.206 3.724,1.206 z m 13.218,0 c 1.38,0 2.597,-0.27 3.651,-0.81 1.054,-0.54 1.875,-1.258 2.462,-2.157 0.586,-0.898 0.88,-1.887 0.88,-2.966 0,-0.21 -0.038,-0.359 -0.114,-0.447 a 0.353,0.353 0 0 0 -0.278,-0.132 0.64,0.64 0 0 0 -0.268,0.074 c -0.104,0.05 -0.22,0.146 -0.35,0.29 -0.23,0.705 -0.677,1.256 -1.346,1.653 -0.668,0.396 -1.437,0.595 -2.306,0.595 -1.358,0 -2.445,-0.466 -3.26,-1.397 -0.477,-0.546 -0.815,-1.273 -1.013,-2.18 l -0.016,-0.076 h 7.451 c 0.472,0 0.841,-0.125 1.109,-0.374 l 0.065,-0.064 c 0.271,-0.292 0.407,-0.692 0.407,-1.199 0,-1.168 -0.274,-2.228 -0.823,-3.181 -0.549,-0.954 -1.334,-1.708 -2.355,-2.265 -1.022,-0.556 -2.238,-0.835 -3.651,-0.835 -1.662,0 -3.086,0.33 -4.27,0.992 a 6.684,6.684 0 0 0 -2.714,2.769 c -0.625,1.184 -0.937,2.564 -0.937,4.14 0,1.499 0.323,2.818 0.97,3.959 A 6.821,6.821 0 0 0 196.329,24 c 1.152,0.634 2.488,0.95 4.01,0.95 z m -2.128,-8.878 a 12.966,12.966 0 0 1 -0.023,-0.791 c 0,-1.036 0.076,-1.851 0.228,-2.446 0.152,-0.595 0.348,-1.017 0.587,-1.265 0.24,-0.248 0.505,-0.372 0.799,-0.372 0.38,0 0.736,0.325 1.067,0.976 0.332,0.65 0.497,1.73 0.497,3.24 0,0.462 -0.206,0.693 -0.619,0.693 h -2.534 z m 19.08,8.548 c 0.26,0 0.458,-0.069 0.594,-0.207 a 0.732,0.732 0 0 0 0.204,-0.537 0.82,0.82 0 0 0 -0.147,-0.488 c -0.098,-0.137 -0.26,-0.223 -0.489,-0.256 l -1.222,-0.248 a 0.647,0.647 0 0 1 -0.457,-0.339 c -0.097,-0.181 -0.146,-0.427 -0.146,-0.735 v -5.818 c 0,-0.65 0.038,-1.185 0.114,-1.604 0.076,-0.418 0.187,-0.73 0.334,-0.933 0.147,-0.204 0.318,-0.306 0.513,-0.306 0.196,0 0.337,0.071 0.424,0.215 0.087,0.143 0.136,0.341 0.147,0.595 l 0.016,0.66 c 0.022,0.75 0.225,1.329 0.611,1.736 0.386,0.408 0.98,0.612 1.785,0.612 0.826,0 1.5,-0.298 2.021,-0.893 0.522,-0.595 0.782,-1.526 0.782,-2.793 0,-1.278 -0.25,-2.231 -0.75,-2.86 -0.5,-0.628 -1.216,-0.942 -2.15,-0.942 -0.772,0 -1.484,0.24 -2.136,0.72 -0.652,0.479 -1.176,1.211 -1.573,2.198 a 6.529,6.529 0 0 0 -0.182,0.515 l -0.028,0.095 -0.124,-2.569 c -0.029,-0.304 -0.081,-0.525 -0.158,-0.663 l -0.03,-0.048 c -0.092,-0.132 -0.23,-0.198 -0.415,-0.198 -0.13,0 -0.288,0.022 -0.473,0.066 a 4.95,4.95 0 0 0 -0.684,0.231 l -4.629,1.34 c -0.26,0.098 -0.446,0.217 -0.554,0.355 a 0.74,0.74 0 0 0 -0.163,0.47 0.64,0.64 0 0 0 0.106,0.38 c 0.07,0.1 0.182,0.194 0.334,0.282 l 0.424,0.05 a 0.618,0.618 0 0 1 0.301,0.272 c 0.06,0.116 0.09,0.306 0.09,0.57 v 8.397 c 0,0.33 -0.027,0.568 -0.082,0.71 a 0.552,0.552 0 0 1 -0.293,0.315 l -0.375,0.149 c -0.141,0.099 -0.253,0.206 -0.334,0.322 a 0.743,0.743 0 0 0 -0.122,0.438 c 0,0.231 0.068,0.413 0.203,0.545 0.136,0.133 0.324,0.199 0.563,0.199 z M 230.002,25 c 1.934,0 3.417,-0.446 4.45,-1.339 1.032,-0.892 1.548,-2.11 1.548,-3.653 0,-0.936 -0.174,-1.757 -0.522,-2.463 -0.347,-0.705 -0.956,-1.33 -1.825,-1.876 -0.87,-0.545 -2.092,-1.06 -3.667,-1.545 -0.587,-0.187 -1.04,-0.377 -1.361,-0.57 -0.32,-0.193 -0.54,-0.4 -0.66,-0.62 -0.12,-0.22 -0.18,-0.457 -0.18,-0.71 0,-0.376 0.136,-0.679 0.408,-0.91 0.272,-0.231 0.674,-0.347 1.206,-0.347 0.739,0 1.437,0.248 2.094,0.744 0.658,0.496 1.383,1.344 2.176,2.545 0.207,0.254 0.413,0.438 0.62,0.554 0.206,0.116 0.402,0.151 0.586,0.107 a 0.574,0.574 0 0 0 0.424,-0.454 c 0.054,-0.237 0.044,-0.576 -0.032,-1.017 l -0.424,-3.041 c -0.044,-0.32 -0.125,-0.545 -0.245,-0.678 a 0.607,0.607 0 0 0 -0.472,-0.198 c -0.174,0 -0.392,0.06 -0.652,0.182 -0.261,0.121 -0.52,0.245 -0.774,0.372 -0.256,0.126 -0.449,0.19 -0.58,0.19 -0.119,0 -0.295,-0.066 -0.529,-0.199 -0.233,-0.132 -0.562,-0.264 -0.986,-0.396 -0.424,-0.133 -0.972,-0.199 -1.646,-0.199 -1.12,0 -2.127,0.204 -3.023,0.612 -0.897,0.408 -1.603,0.989 -2.12,1.744 -0.515,0.755 -0.773,1.655 -0.773,2.702 0,0.926 0.192,1.736 0.578,2.43 0.386,0.694 0.975,1.29 1.769,1.785 0.793,0.496 1.792,0.898 2.999,1.207 0.782,0.209 1.382,0.421 1.8,0.636 0.419,0.215 0.707,0.45 0.864,0.703 0.158,0.253 0.237,0.534 0.237,0.842 0,0.408 -0.136,0.744 -0.408,1.009 -0.271,0.264 -0.684,0.396 -1.238,0.396 a 3.417,3.417 0 0 1 -1.492,-0.338 c -0.472,-0.226 -0.959,-0.615 -1.459,-1.166 -0.5,-0.55 -1.059,-1.305 -1.678,-2.264 -0.185,-0.254 -0.394,-0.43 -0.628,-0.53 a 0.84,0.84 0 0 0 -0.709,0.017 c -0.228,0.089 -0.375,0.276 -0.44,0.562 -0.065,0.287 -0.049,0.64 0.049,1.058 l 0.505,3.29 c 0.076,0.33 0.185,0.55 0.326,0.66 0.142,0.11 0.294,0.166 0.457,0.166 0.184,0 0.41,-0.06 0.676,-0.182 l 0.799,-0.363 c 0.266,-0.122 0.48,-0.182 0.643,-0.182 0.163,0 0.378,0.06 0.644,0.182 a 7.51,7.51 0 0 0 1.043,0.363 c 0.43,0.121 0.97,0.182 1.622,0.182 z"
       fill="white"
       id="path849" />
    <path
       d="m 23.123,11.378 c 2.89,2.89 2.387,8.1 -1.126,11.613 -1.688,1.687 -3.813,2.74 -5.987,2.965 C 15.72,25.985 15.434,26 15.154,26 13.284,26 11.615,25.344 10.385,24.114 8.969,22.7 8.315,20.702 8.546,18.489 8.77,16.316 9.823,14.19 11.51,12.503 15.025,8.991 20.234,8.484 23.123,11.378 Z m -0.18,0.18 c -0.961,1.16 -1.67,2.482 -2.851,3.453 -1.257,1.033 -2.64,1.41 -4.161,1.85 -3.338,0.97 -4.988,3.791 -5.369,7.075 1.043,-1.253 1.808,-2.657 3.125,-3.663 1.152,-0.88 2.398,-1.227 3.754,-1.598 3.411,-0.936 5.105,-3.781 5.502,-7.117 z M 14.49,5.003 a 10.573,10.573 0 0 1 2.165,3.151 c -1.68,0.29 -3.308,0.992 -4.75,2.046 A 7.17,7.17 0 0 0 10.068,9.36 C 8.549,8.92 7.165,8.544 5.908,7.51 4.728,6.539 4.019,5.214 3.056,4.056 c 0.396,3.336 2.091,6.182 5.502,7.118 0.576,0.157 1.128,0.32 1.666,0.511 -1.626,1.713 -2.696,3.8 -3.07,5.97 A 10.607,10.607 0 0 1 4,15.491 C 0.492,11.978 -0.014,6.768 2.877,3.878 5.766,0.986 10.975,1.49 14.489,5.003 Z"
       fill="#0e8784"
       id="path851" />
  </g>
</svg>
